<?xml version="1.0" standalone="no"?>
<!DOCTYPE svg PUBLIC "-//W3C//DTD SVG 20010904//EN"
 "http://www.w3.org/TR/2001/REC-SVG-20010904/DTD/svg10.dtd">
<svg version="1.0" xmlns="http://www.w3.org/2000/svg"
 width="160.000000pt" height="88.000000pt" viewBox="0 0 160.000000 88.000000"
 preserveAspectRatio="xMidYMid meet">

<g transform="translate(0.000000,88.000000) scale(0.100000,-0.100000)"
fill="#000000" stroke="none">
<path d="M675 664 c-49 -25 -94 -49 -98 -53 -5 -5 12 -23 37 -41 l46 -33 0
-115 c0 -99 3 -119 21 -148 17 -29 26 -34 58 -34 28 0 43 7 64 31 l27 31 0
-26 c0 -24 3 -26 45 -26 l45 0 0 155 0 154 45 20 c25 11 45 21 45 23 0 2 -55
2 -122 2 -68 -1 -105 0 -83 2 22 2 65 7 95 10 l55 6 -85 44 c-47 23 -89 43
-95 43 -5 0 -50 -20 -100 -45z m155 -213 c0 -70 -17 -111 -45 -111 -29 0 -35
16 -35 91 0 47 3 57 14 53 8 -3 23 -1 33 5 30 17 33 13 33 -38z"/>
<path d="M223 555 c-37 -16 -53 -42 -53 -85 0 -41 37 -74 98 -90 26 -6 52 -16
59 -22 22 -18 15 -47 -12 -54 -33 -8 -56 1 -62 26 -4 16 -14 20 -49 20 -48 0
-53 -9 -33 -54 33 -71 194 -74 243 -5 9 13 16 41 16 62 0 50 -28 75 -112 102
-71 23 -85 48 -30 53 27 3 35 -1 39 -17 4 -17 13 -21 44 -21 45 0 57 16 39 50
-24 45 -122 64 -187 35z"/>
<path d="M1110 509 c0 -45 -2 -50 -17 -44 -49 22 -82 18 -113 -13 -26 -26 -30
-38 -30 -82 0 -105 69 -162 138 -114 12 8 22 10 22 5 0 -6 18 -11 40 -11 l40
0 0 155 0 155 -40 0 -40 0 0 -51z m-6 -121 c20 -57 -29 -115 -61 -72 -16 22
-17 58 -2 85 15 29 51 21 63 -13z"/>
<path d="M1250 530 c0 -28 2 -30 40 -30 38 0 40 2 40 30 0 28 -2 30 -40 30
-38 0 -40 -2 -40 -30z"/>
<path d="M523 530 c-20 -12 -33 -28 -33 -40 0 -11 -7 -20 -15 -20 -10 0 -15
-10 -15 -30 0 -20 5 -30 15 -30 11 0 15 -12 15 -49 0 -53 14 -101 33 -113 16
-10 95 -10 101 0 10 17 -7 52 -25 52 -16 0 -19 8 -19 55 0 48 2 55 20 55 16 0
20 7 20 30 0 23 -4 30 -20 30 -17 0 -20 7 -20 40 0 46 -10 49 -57 20z"/>
<path d="M1250 360 l0 -110 40 0 40 0 0 110 0 110 -40 0 -40 0 0 -110z"/>
</g>
</svg>
